<?xml version="1.0" encoding="utf-8"?>
<!-- Generator: Adobe Illustrator 26.0.0, SVG Export Plug-In . SVG Version: 6.00 Build 0)  -->
<svg version="1.1" id="Logo_reduced" xmlns="http://www.w3.org/2000/svg" xmlns:xlink="http://www.w3.org/1999/xlink" x="0px"
	 y="0px" viewBox="0 0 138 136.1" style="enable-background:new 0 0 138 136.1;" xml:space="preserve">
<style type="text/css">
	.st0{fill:#3D535F;}
	.st1{fill:#FFFFFF;}
</style>
<path id="BG" class="st0" d="M138,113c0,12.8-10.3,23.1-23.1,23.1H23.1C10.3,136.1,0,125.7,0,113V23.1C0,10.3,10.3,0,23.1,0h91.8
	C127.7,0,138,10.3,138,23.1V113z"/>
<path class="st1" d="M55.9,94.2c-0.1,0.8-0.8,1.4-1.8,1.4H41.1c-0.8,0-1.5-0.5-1.5-1.3l0.1-0.2L48,24c0.1-0.8,0.2-1.2,1.2-1.3h13.9
	h0.2c0.7,0,1.1,0.5,1.1,1.2v0.2L55.9,94.2z"/>
<path class="st1" d="M89.4,96.5c-1.9,15.2-11.5,18.8-22.9,18.8c-6.7,0-7.7-0.2-9.4-0.5c-0.8-0.1-1.8-0.2-1.8-1.5v-0.6l0.7-5.7
	c0.2-1.7,0.8-2,2.4-2c1.4-0.1,3.2-0.1,5.3-0.2c5.1-0.2,8.6-0.7,9.6-7.9l8.9-72.8c0.1-0.8,0.8-1.3,1.7-1.4l13.3,0.2h0.2
	c0.8,0,1.2,0.5,1.2,1.2L89.4,96.5z"/>
</svg>
